<?xml version="1.0" encoding="utf-8"?>
<!-- Generator: Adobe Illustrator 25.0.0, SVG Export Plug-In . SVG Version: 6.00 Build 0)  -->
<svg version="1.1" id="Layer_1" xmlns="http://www.w3.org/2000/svg" xmlns:xlink="http://www.w3.org/1999/xlink" x="0px" y="0px"
	 viewBox="0 0 792 504" style="enable-background:new 0 0 792 504;" xml:space="preserve">
<style type="text/css">
	.st0{fill:#0078D6;}
	.st1{fill:#F37B23;}
	.st2{fill:#FFFFFF;}
</style>
<g>
	<path class="st0" d="M543.28,321.16h-19.91c-0.37,0-0.66-0.3-0.66-0.66v-95.72c0-0.37,0.3-0.66,0.66-0.66h19.91
		c0.37,0,0.66,0.3,0.66,0.66v95.72C543.94,320.86,543.64,321.16,543.28,321.16z"/>
	<path class="st0" d="M658.65,321.16h-19.92c-0.36,0-0.66-0.3-0.66-0.66v-95.72c0-0.36,0.3-0.66,0.66-0.66h19.92
		c0.36,0,0.66,0.3,0.66,0.66v95.72C659.31,320.87,659.01,321.16,658.65,321.16z"/>
	<path class="st0" d="M434.2,224.56h11.02c1,0,2.01,0,3.06,0c1.04,0,1.88,0.23,2.51,0.68c0.82,0.45,1.36,1.17,1.63,2.17
		c0.27,1,0.59,1.99,0.95,2.98c0.64,1.72,1.2,3.44,1.7,5.15s1.07,3.48,1.7,5.28c1.81,5.6,3.6,11.21,5.37,16.81
		c1.77,5.6,3.56,11.21,5.37,16.81c0.45,1.54,0.93,3.07,1.43,4.61s0.97,3.07,1.43,4.61c0.27,0.82,0.54,1.63,0.82,2.44
		c0.27,0.81,0.63,1.54,1.08,2.17c0.09,0.18,0.2,0.29,0.34,0.34c0.13,0.05,0.29,0.16,0.48,0.34c1,0,1.65-0.43,1.97-1.29
		c0.32-0.85,0.61-1.64,0.89-2.37c0.73-1.9,1.36-3.84,1.9-5.82c0.54-1.99,1.18-4.02,1.9-6.1c1.99-5.97,3.92-11.91,5.78-17.83
		s3.79-11.86,5.78-17.83c0.45-1.45,0.9-2.87,1.36-4.27c0.45-1.4,0.9-2.82,1.36-4.27c0.37-0.72,0.66-1.45,0.89-2.17
		c0.23-0.72,0.7-1.31,1.43-1.77c0.64-0.45,1.38-0.68,2.25-0.68c0.86,0,1.74,0,2.65,0h9.12c0.9,0,1.81,0,2.72,0s1.63,0.18,2.18,0.55
		c0.91,0.45,1.22,1.29,0.95,2.5c-0.27,1.22-0.54,2.24-0.81,3.05c-0.82,2.08-1.57,4.23-2.25,6.44c-0.68,2.21-1.38,4.4-2.11,6.57
		c-0.27,0.54-0.48,1.08-0.61,1.62c-0.14,0.55-0.3,1.09-0.48,1.63c-0.73,1.9-1.38,3.84-1.98,5.83c-0.59,1.99-1.25,3.98-1.97,5.96
		c-2.45,7.32-4.9,14.67-7.35,22.03c-2.45,7.37-4.9,14.71-7.35,22.03c-0.82,2.08-1.54,4.18-2.18,6.3c-0.64,2.13-1.32,4.23-2.04,6.3
		c-0.45,1.27-0.91,2.42-1.36,3.46c-0.45,1.04-1.36,1.74-2.72,2.1c-0.73,0.18-1.54,0.25-2.45,0.2c-0.91-0.04-1.77-0.07-2.59-0.07
		h-9.79c-1,0-2.06,0.03-3.2,0.07c-1.13,0.04-2.06-0.16-2.78-0.61c-1-0.54-1.66-1.37-1.98-2.51c-0.32-1.13-0.66-2.23-1.02-3.32
		c-0.64-1.9-1.25-3.82-1.84-5.76c-0.59-1.94-1.2-3.87-1.84-5.76c-1.99-5.69-3.9-11.43-5.71-17.21c-1.82-5.78-3.72-11.57-5.71-17.35
		c-0.81-2.62-1.61-5.22-2.38-7.8c-0.77-2.58-1.61-5.12-2.52-7.66c-0.36-0.82-0.64-1.63-0.81-2.44c-0.18-0.81-0.45-1.62-0.82-2.44
		c-0.81-2.53-1.61-5.04-2.38-7.52c-0.77-2.48-1.61-4.99-2.51-7.52c-0.18-0.81-0.41-1.61-0.68-2.37s-0.55-1.56-0.82-2.37
		c-0.09-0.45-0.15-0.9-0.2-1.36c-0.04-0.45,0.02-0.85,0.2-1.22c0.27-0.63,0.86-1.04,1.77-1.22c0.18-0.09,0.38-0.11,0.61-0.07
		C433.81,224.68,434.02,224.65,434.2,224.56z"/>
	<path class="st0" d="M742.03,224.56h-29.08h-15.14h-29.08c-1.68,0-3.05,1.36-3.05,3.04v11.3c0,1.68,1.37,3.04,3.05,3.04h22.57
		c2.22,0.01,3.11,1.76,3.46,2.85v73.34c0,1.68,1.37,3.04,3.05,3.04h15.14c1.68,0,3.05-1.36,3.05-3.04v-72.47c0,0,0.45-3.7,3.67-3.72
		h22.36c1.68,0,3.05-1.36,3.05-3.04v-11.3C745.08,225.92,743.71,224.56,742.03,224.56z"/>
	<path class="st1" d="M421.56,224.56h-15.14c-1.68,0-3.05,1.33-3.05,2.97v45.08c0,21.08-1.58,23.34-4.89,26.73
		c-0.13,0.13-0.28,0.25-0.43,0.38c-1.1,0.77-2.29,1.41-3.56,1.95c-1.84,0.71-3.87,1.23-5.6,1.58c-1.73,0.27-3.59,0.4-5.6,0.4
		c-2.01,0-3.87-0.13-5.6-0.4c-1.73-0.36-3.77-0.87-5.6-1.58c-1.27-0.54-2.47-1.18-3.56-1.95c-0.15-0.12-0.3-0.25-0.43-0.38
		c-3.31-3.39-4.89-5.65-4.89-26.73v-45.08c0-1.64-1.37-2.97-3.05-2.97H345c-1.68,0-3.05,1.33-3.05,2.97v45.08
		c0,0,0,16.52,1.43,22.95c2.15,9.34,9.34,16.44,12.52,18.56c2.81,1.94,6.12,3.53,9.93,4.77c2.58,0.88,8.16,1.73,8.16,1.73
		s2.31,0.31,3.67,0.39c1.36,0.09,2.68,0.13,3.95,0.13c0.39,0,0.77-0.01,1.16-0.01c0.17,0,0.34,0.01,0.51,0.01
		c0.17,0,0.34-0.01,0.51-0.01c0.39,0,0.76,0.01,1.16,0.01c1.27,0,2.58-0.04,3.95-0.13c1.36-0.09,3.67-0.39,3.67-0.39
		s5.58-0.85,8.16-1.73c3.81-1.24,7.12-2.83,9.93-4.77c3.17-2.13,10.36-9.23,12.52-18.56c1.43-6.44,1.43-22.95,1.43-22.95v-45.08
		C424.61,225.89,423.24,224.56,421.56,224.56z"/>
	<path class="st1" d="M246.79,225.35c-0.26-0.68-1.87-1.06-2.95-1.06h-11.97c-1.09,0-2.23,0-3.4,0c-1.18,0-2.13,0.18-2.86,0.54
		c-1,0.45-2.52,2.58-2.52,2.58l-17.2,28.98c0,0-2.29,3.94-3.54,3.94c-0.01,0-0.03-0.01-0.04-0.01c-0.01,0-0.03,0.01-0.04,0.01
		c-1.24,0-3.54-3.94-3.54-3.94l-17.2-28.98c0,0-1.52-2.13-2.52-2.58c-0.72-0.36-1.68-0.54-2.86-0.54c-1.18,0-2.31,0-3.4,0h-11.97
		c-1.08,0-2.69,0.39-2.95,1.06c-0.26,0.68-0.21,1.54,0.29,2.4c0.5,0.86,4.15,7.07,4.15,7.07s24.62,41.06,25.44,42.51
		c0.72,1,3.17,5.44,3.54,6.8c0.03,0.08,0.05,0.18,0.08,0.27v33.69c0,1.68,1.37,3.05,3.05,3.05h7.93h7.93c1.68,0,3.05-1.37,3.05-3.05
		v-33.69c0.03-0.09,0.04-0.19,0.08-0.27c0.37-1.36,2.81-5.8,3.54-6.8c0.82-1.45,25.44-42.51,25.44-42.51s3.65-6.21,4.15-7.07
		C247,226.9,247.05,226.03,246.79,225.35z"/>
	<g>
		<path class="st1" d="M287.55,224.56c-26.52,0-48.02,21.62-48.02,48.3c0,26.68,21.5,48.3,48.02,48.3s48.02-21.62,48.02-48.3
			C335.58,246.19,314.07,224.56,287.55,224.56z M288.4,304.31c-0.28,0-0.56-0.04-0.84-0.05c-0.28,0.01-0.56,0.05-0.84,0.05
			c-14.27,0-25.83-14.08-25.83-31.45c0-17.37,11.57-31.45,25.83-31.45c0.28,0,0.56,0.04,0.84,0.05c0.28-0.01,0.56-0.05,0.84-0.05
			c14.27,0,25.83,14.08,25.83,31.45C314.23,290.23,302.66,304.31,288.4,304.31z"/>
	</g>
	<path class="st0" d="M634.56,321.16"/>
	<path class="st0" d="M631.86,289.08c-0.24-7-4.47-12.19-4.47-12.19l0,0.01c-2.61-4.17-7.53-7.01-9.93-8.18
		c-2.84-1.38-13.79-3.88-13.79-3.88c-2.54-0.69-5.1-1.31-7.69-1.87c-2.59-0.56-5.1-1.22-7.55-2c-1.08-0.34-2.15-0.62-3.19-0.84
		c-1.05-0.21-2.06-0.54-3.06-0.97c-1.82-0.69-3.38-1.4-4.69-2.13c-1.32-0.73-2.34-2-3.06-3.81c-0.18-0.43-0.45-3.14-0.27-3.75
		c0.45-2.33,1.25-4.07,2.38-5.23c1.13-1.17,2.74-2.17,4.83-3.04c1.27-0.51,2.72-0.86,4.36-1.03c1.63-0.17,3.28-0.21,4.97-0.13
		c1.68,0.08,3.31,0.28,4.89,0.58c1.59,0.3,2.93,0.67,4.01,1.1c1.18,0.6,2.4,1.33,3.68,2.2c0.73,0.51,1.41,1.25,2.04,2.2
		c0.63,0.95,1.13,1.85,1.49,2.71c0.45,0.95,0.81,1.9,1.09,2.84c0.27,0.95,0.95,1.63,2.04,2.06c0.55,0.17,1.22,0.26,2.04,0.26
		c0.81,0,1.63,0,2.45,0h8.57c1,0,1.9-0.06,2.72-0.19c0.82-0.13,1.45-0.45,1.9-0.97c0.36-0.43,0.56-1.1,0.61-2
		c0.04-0.9-0.02-1.7-0.2-2.39c-0.45-1.72-0.93-3.31-1.43-4.77c-0.5-1.46-1.21-2.88-2.11-4.26c-6.62-10.15-18.73-15.1-36.32-14.84
		c0,0-8.67,0.4-14.42,2.45c-2.04,0.73-4.04,1.42-5.85,2.45c-2.81,1.72-5.28,3.63-7.41,5.74c-2.13,2.11-7.3,9.26-7.01,18.14
		c0.05,1.47,0.23,2.58,0.41,3.36c0.27,0.95,0.5,1.83,0.68,2.65c0.18,0.82,0.45,1.61,0.81,2.39c1,2.24,2.36,4.22,4.08,5.94
		c1.72,1.72,3.63,3.23,5.71,4.52c1.63,0.95,3.4,1.79,5.3,2.52c1.9,0.74,3.9,1.44,5.99,2.13c0.73,0.17,1.38,0.35,1.97,0.51
		c0.59,0.17,6.8,1.83,8.3,2.13c1.49,0.3,5.8,1.42,6.39,1.55c0.59,0.13,1.2,0.28,1.84,0.45c1.63,0.51,3.29,1.01,4.97,1.48
		c1.68,0.48,3.19,1.1,4.56,1.88c0.03,0.02,0.05,0.03,0.09,0.04c1.91,1.1,5.74,3.77,6.35,7.84c0,0.01,0,0.02,0,0.03
		c0.15,0.99,0.09,1.9-0.1,2.72c-0.14,0.41-0.35,0.99-0.59,1.59c-1.37,2.67-4.19,4.25-5.48,5.16c-6.67,3.16-16.31,3.47-23.01,0.99
		l-0.4-0.16c-0.43-0.17-0.87-0.33-1.26-0.54c-4.59-2.46-8.33-4.69-9.48-11.8c-0.16-0.99-0.77-1.7-1.77-2.13
		c-0.64-0.26-1.36-0.38-2.18-0.38c-0.81,0-1.59,0-2.31,0h-8.57c-1.09,0-2.06,0.06-2.92,0.19c-0.86,0.13-1.52,0.54-1.98,1.22
		c-0.45,0.51-0.64,1.27-0.54,2.26c0.09,0.99,0.5,3.19,0.76,4.28c0.05,0.49,0.16,0.98,0.33,1.47c0.66,2.31,1.55,4.36,2.64,6.16
		c2.19,3.94,8.7,9.35,11.54,10.89c0.03,0.01,0.05,0.02,0.08,0.04c2.77,1.49,5.86,2.77,9.27,3.83c1,0.34,4.26,0.96,4.76,1.06
		c9.82,2.3,20.63,2.38,31.78-1.98c0.02-0.01,0.04-0.02,0.05-0.02c0.57-0.2,1.15-0.4,1.7-0.6c1.68-0.6,3.29-1.38,4.83-2.32
		c0.04-0.03,0.08-0.06,0.13-0.08c0.52-0.24,1.11-0.55,1.78-0.95C631.48,306.79,632.11,296.08,631.86,289.08z"/>
	<g>
		<path class="st0" d="M96.75,182.84c-27.48,0-49.83,23.27-49.83,51.87c0,10.89,3.26,21.36,9.4,30.24l1.31,1.91l35.79,52.57
			c0.78,1.09,2.02,1.73,3.32,1.73c1.31,0,2.54-0.64,3.32-1.73l35.35-51.95l1.74-2.52c6.16-8.9,9.42-19.36,9.42-30.26
			C146.57,206.11,124.22,182.84,96.75,182.84z M96.75,252.25c-9.44,0-17.09-7.65-17.09-17.09c0-9.44,7.65-17.09,17.09-17.09
			s17.09,7.65,17.09,17.09C113.84,244.6,106.18,252.25,96.75,252.25z"/>
	</g>
</g>
<g>
	<path class="st2" d="M159.47,211.56v-23.33h10.94c5.06,0,7.86,3.42,7.86,7.52c0,4.05-2.8,7.47-7.86,7.47h-5.93v8.34H159.47z
		 M173.16,195.75c0-1.98-1.49-3.13-3.47-3.13h-5.26v6.27h5.26C171.67,198.88,173.16,197.67,173.16,195.75z"/>
	<path class="st2" d="M188.64,199.94c0-7.04,5.16-12.1,12.2-12.1c7.04,0,12.2,5.06,12.2,12.1c0,7.04-5.16,12.1-12.2,12.1
		C193.8,211.99,188.64,206.98,188.64,199.94z M207.92,199.94c0-4.39-2.75-7.67-7.09-7.67s-7.09,3.28-7.09,7.67
		c0,4.34,2.75,7.67,7.09,7.67C205.17,207.61,207.92,204.28,207.92,199.94z"/>
	<path class="st2" d="M242.1,211.56l-4.1-16.05l-4.05,16.05h-5.3l-6.7-23.33h5.54l4.1,16.87l4.44-16.87h3.91l4.39,16.87l4.1-16.87
		h5.54l-6.65,23.33H242.1z"/>
	<path class="st2" d="M264.76,211.56v-23.33h16.54v4.39h-11.57v4.92h11.33v4.39h-11.33v5.3h11.57v4.39L264.76,211.56L264.76,211.56z
		"/>
	<path class="st2" d="M306.81,211.56l-4.58-8.29h-3.66v8.29h-4.97v-23.33h10.94c4.87,0,7.86,3.18,7.86,7.52
		c0,4.1-2.6,6.32-5.16,6.94l5.3,8.87L306.81,211.56L306.81,211.56z M307.29,195.7c0-1.93-1.49-3.13-3.47-3.13h-5.26v6.32h5.26
		C305.79,198.93,307.29,197.72,307.29,195.7z"/>
	<path class="st2" d="M324.5,211.56v-23.33h16.54v4.39h-11.57v4.92h11.33v4.39h-11.33v5.3h11.57v4.39L324.5,211.56L324.5,211.56z"/>
	<path class="st2" d="M353.33,211.56v-23.33h9.21c7.33,0,12.39,4.68,12.39,11.67c0,7.09-5.06,11.72-12.34,11.72L353.33,211.56
		L353.33,211.56z M369.82,199.89c0-4.1-2.51-7.28-7.28-7.28h-4.29v14.61h4.24C367.12,207.22,369.82,203.89,369.82,199.89z"/>
	<path class="st2" d="M421.65,211.56v-23.33h12.29c4.44,0,6.7,2.84,6.7,5.93c0,2.89-1.83,4.92-4.05,5.35
		c2.51,0.39,4.48,2.8,4.48,5.69c0,3.52-2.31,6.32-6.8,6.32h-12.63L421.65,211.56L421.65,211.56z M435.58,195.07
		c0-1.45-1.06-2.46-2.75-2.46h-6.22v4.92h6.22C434.52,197.53,435.58,196.57,435.58,195.07z M436.01,204.52
		c0-1.49-1.06-2.65-2.99-2.65h-6.46v5.3h6.46C434.9,207.22,436.01,206.21,436.01,204.52z"/>
	<path class="st2" d="M458.72,211.56v-9.55l-8.97-13.79h5.69l5.79,9.35l5.79-9.35h5.64l-8.92,13.79v9.55H458.72z"/>
</g>
</svg>
